<?xml version="1.0" ?><svg viewBox="0 0 512 512" xmlns="http://www.w3.org/2000/svg" xmlns:xlink="http://www.w3.org/1999/xlink"><defs><linearGradient gradientUnits="userSpaceOnUse" id="linear-gradient" x1="193.4947" x2="318.5053" y1="140.0774" y2="356.6021"><stop offset="0" stop-color="#009eff"/><stop offset="1" stop-color="#003fa5"/></linearGradient><linearGradient gradientUnits="userSpaceOnUse" id="linear-gradient-2" x1="201.3077" x2="310.692" y1="153.6102" y2="343.0694"><stop offset="0" stop-color="#fff9e6"/><stop offset="0.8" stop-color="#ffc8b3"/></linearGradient><linearGradient gradientUnits="userSpaceOnUse" id="linear-gradient-3" x1="300.2114" x2="366.4547" y1="174.9516" y2="174.9516"><stop offset="0" stop-color="#cc0202"/><stop offset="1" stop-color="#910000"/></linearGradient><linearGradient gradientUnits="userSpaceOnUse" id="linear-gradient-4" x1="326.4943" x2="373.3227" y1="123.1304" y2="204.2395"><stop offset="0" stop-color="#ffe31a"/><stop offset="1" stop-color="#ff8b00"/></linearGradient><linearGradient gradientUnits="userSpaceOnUse" id="linear-gradient-5" x1="318.1616" x2="328.3982" y1="170.1938" y2="187.924"><stop offset="0" stop-color="#d6e4e5"/><stop offset="1" stop-color="#abced6"/></linearGradient><linearGradient gradientUnits="userSpaceOnUse" id="linear-gradient-6" x1="254.57" x2="258.3772" y1="214.3326" y2="220.9269"><stop offset="0" stop-color="#2e5056"/><stop offset="1" stop-color="#072835"/></linearGradient><linearGradient id="linear-gradient-7" x1="298.3108" x2="302.1181" xlink:href="#linear-gradient-5" y1="189.0785" y2="195.673"/><linearGradient id="linear-gradient-8" x1="210.8286" x2="214.6361" xlink:href="#linear-gradient-5" y1="239.5862" y2="246.1809"/><linearGradient id="linear-gradient-9" x1="162.0892" x2="208.9176" xlink:href="#linear-gradient-4" y1="218.0496" y2="299.1588"/><linearGradient id="linear-gradient-10" x1="171.807" x2="218.6354" xlink:href="#linear-gradient-3" y1="212.439" y2="293.5482"/><linearGradient id="linear-gradient-11" x1="163.2713" x2="173.5079" xlink:href="#linear-gradient-5" y1="259.6197" y2="277.35"/></defs><title/><g id="Weightlifting"><polygon points="506 248.34 506 263.66 256 408.01 256 392.689 506 248.34" style="fill:#002c60"/><polygon points="256 103.99 6 248.34 256 392.689 506 248.34 256 103.99" style="fill:url(#linear-gradient)"/><polygon points="256 122.034 37.25 248.34 256 374.646 474.75 248.34 256 122.034" style="fill:url(#linear-gradient-2)"/><polygon points="6 248.34 6 263.66 256 408.01 256 392.689 6 248.34" style="fill:#001335"/><ellipse cx="323.6257" cy="178.8595" rx="27.0341" ry="46.8284" style="fill:#910000" transform="translate(-46.0721 185.7755) rotate(-30)"/><ellipse cx="323.6257" cy="178.8595" rx="19.5799" ry="36.8968" style="fill:#cc0202" transform="translate(-46.0721 185.7755) rotate(-30)"/><path d="M309.9293,132.6942l-9.7179,5.6106c12.93-7.4653,33.8951,4.64,46.8265,27.0376s12.9321,46.6063.0019,54.0716l9.7178-5.6106c12.93-7.4653,12.9294-31.674-.0019-54.0716S322.86,125.2289,309.9293,132.6942Z" style="fill:url(#linear-gradient-3)"/><path d="M319.6471,127.0836l-9.7178,5.6106c12.93-7.4653,33.895,4.64,46.8264,27.0376s12.9322,46.6063.0019,54.0716l9.7179-5.6107c12.93-7.4652,12.9293-31.6739-.0019-54.0715S332.5774,119.6183,319.6471,127.0836Z" style="fill:url(#linear-gradient-4)"/><ellipse cx="317.5036" cy="182.394" rx="5.9096" ry="10.2366" style="fill:#88b4d3" transform="translate(-48.6596 183.188) rotate(-30)"/><path d="M318.82,169.8136l-6.4348,3.7151c2.8264-1.6318,7.41,1.0144,10.2362,5.91s2.8268,10.188,0,11.82l6.4348-3.7152c2.8266-1.6319,2.8264-6.9238,0-11.82S321.6467,168.1817,318.82,169.8136Z" style="fill:url(#linear-gradient-5)"/><path d="M309.0617,191.6646q-1.3081.7546-2.6922,1.554Z" style="fill:#fff"/><path d="M282.9859,202.3227c-1.0506-1.8205-2.7541-2.804-3.8053-2.199L228.059,229.6388c1.0511-.6053,2.7547.3789,3.8053,2.1989s1.0517,3.7891.0006,4.3961l51.1216-29.5151C284.0377,206.1119,284.0377,204.1436,282.9859,202.3227Z" style="fill:url(#linear-gradient-6)"/><path d="M317.2154,186.9568c-1.2929.7464-3.0967,1.788-5.2193,3.0133C314.1936,188.7015,315.9625,187.68,317.2154,186.9568Z" style="fill:#fff"/><path d="M319.3465,185.7262c1.0517-.607,1.0512-2.5753,0-4.396s-2.7559-2.8054-3.807-2.1984l-36.3606,20.9924.0017,0c1.0512-.605,2.7547.3785,3.8053,2.199s1.0518,3.7892.0006,4.396Z" style="fill:url(#linear-gradient-7)"/><path d="M231.8643,231.8377c-1.0506-1.82-2.7542-2.8042-3.8053-2.1989l-.0017.0006L191.6967,250.632c1.0512-.6069,2.7559.3773,3.807,2.1983s1.0515,3.7891,0,4.3961l36.3609-20.9926C232.916,235.6268,232.916,233.6587,231.8643,231.8377Z" style="fill:url(#linear-gradient-8)"/><ellipse cx="168.9384" cy="268.1681" rx="27.0341" ry="46.8284" style="fill:#ff8b00" transform="translate(-111.4506 120.3969) rotate(-30)"/><ellipse cx="168.9384" cy="268.1681" rx="19.5799" ry="36.8968" style="fill:#ffa631" transform="translate(-111.4506 120.3969) rotate(-30)"/><path d="M155.242,222.0028l-9.7179,5.6106c12.93-7.4652,33.8951,4.64,46.8265,27.0377s12.9322,46.6062.0019,54.0715l9.7179-5.6106c12.93-7.4653,12.9293-31.6739-.0019-54.0715S168.1722,214.5376,155.242,222.0028Z" style="fill:url(#linear-gradient-9)"/><path d="M164.96,216.3922l-9.7178,5.6106c12.93-7.4652,33.8951,4.64,46.8265,27.0377s12.9321,46.6062.0019,54.0715l9.7178-5.6106c12.93-7.4653,12.9294-31.6739-.0019-54.0715S177.89,208.927,164.96,216.3922Z" style="fill:url(#linear-gradient-10)"/><ellipse cx="162.6133" cy="271.8199" rx="5.9096" ry="10.2366" style="fill:#88b4d3" transform="translate(-114.1239 117.7236) rotate(-30)"/><ellipse cx="162.6133" cy="271.8199" rx="2.2719" ry="5.0809" style="fill:#072835" transform="translate(-114.1239 117.7236) rotate(-30)"/><path d="M163.93,259.24l-6.4348,3.7151c2.8264-1.6318,7.4094,1.0144,10.2362,5.91s2.8267,10.188,0,11.82l6.4348-3.7151c2.8266-1.6319,2.8264-6.9238,0-11.82S166.7564,257.6076,163.93,259.24Z" style="fill:url(#linear-gradient-11)"/></g></svg>